name rise30.2954peak35.7071fall66.7804.mot
datacolumns 19
datarows 30
range 13.17328500000000 13.22162000000000
endheader
time	ground_force1_vx	ground_force1_vy	ground_force1_vz	ground_force1_px	ground_force1_py	ground_force1_pz	ground_force2_vx	ground_force2_vy	ground_force2_vz	ground_force2_px	ground_force2_py	ground_force2_pz	ground_torque1_x	ground_torque1_y	ground_torque1_z	ground_torque2_x	ground_torque2_y	ground_torque2_z	
13.17328500000000	11.34437000000000	691.42400999999995	44.70558200000000	0.22366200000000	0.00000000000000	0.15111000000000	0.00000000000000	0.00000000000000	0.00000000000000	0.00000000000000	0.00000000000000	0.00000000000000	0.00000000000000	17.27656500000000	0.00000000000000	0.00000000000000	0.00000000000000	0.00000000000000	
13.17495400000000	10.95349600000000	692.43700100000001	44.73319400000000	0.22280200000000	0.00000000000000	0.15101000000000	0.00000000000000	0.00000000000000	0.00000000000000	0.00000000000000	0.00000000000000	0.00000000000000	0.00000000000000	17.37863500000000	0.00000000000000	0.00000000000000	0.00000000000000	0.00000000000000	
13.17661700000000	10.54731700000000	693.50575100000003	44.76909000000000	0.22191600000000	0.00000000000000	0.15091300000000	0.00000000000000	0.00000000000000	0.00000000000000	0.00000000000000	0.00000000000000	0.00000000000000	0.00000000000000	17.48830700000000	0.00000000000000	0.00000000000000	0.00000000000000	0.00000000000000	
13.17829200000000	10.12572200000000	694.62940100000003	44.81303100000000	0.22100400000000	0.00000000000000	0.15081800000000	0.00000000000000	0.00000000000000	0.00000000000000	0.00000000000000	0.00000000000000	0.00000000000000	0.00000000000000	17.60545800000000	0.00000000000000	0.00000000000000	0.00000000000000	0.00000000000000	
13.17995700000000	9.68865400000000	695.80709500000000	44.86477500000000	0.22006600000000	0.00000000000000	0.15072500000000	0.00000000000000	0.00000000000000	0.00000000000000	0.00000000000000	0.00000000000000	0.00000000000000	0.00000000000000	17.72995400000000	0.00000000000000	0.00000000000000	0.00000000000000	0.00000000000000	
13.18162200000000	9.23611100000000	697.03798600000005	44.92408300000000	0.21910400000000	0.00000000000000	0.15063500000000	0.00000000000000	0.00000000000000	0.00000000000000	0.00000000000000	0.00000000000000	0.00000000000000	0.00000000000000	17.86165300000000	0.00000000000000	0.00000000000000	0.00000000000000	0.00000000000000	
13.18328300000000	8.76814400000000	698.32122800000002	44.99071800000000	0.21811700000000	0.00000000000000	0.15054800000000	0.00000000000000	0.00000000000000	0.00000000000000	0.00000000000000	0.00000000000000	0.00000000000000	0.00000000000000	18.00040000000000	0.00000000000000	0.00000000000000	0.00000000000000	0.00000000000000	
13.18495800000000	8.28486000000000	699.65597800000000	45.06444500000000	0.21710600000000	0.00000000000000	0.15046200000000	0.00000000000000	0.00000000000000	0.00000000000000	0.00000000000000	0.00000000000000	0.00000000000000	0.00000000000000	18.14603300000000	0.00000000000000	0.00000000000000	0.00000000000000	0.00000000000000	
13.18662200000000	7.78641900000000	701.04139499999997	45.14503400000000	0.21607400000000	0.00000000000000	0.15037900000000	0.00000000000000	0.00000000000000	0.00000000000000	0.00000000000000	0.00000000000000	0.00000000000000	0.00000000000000	18.29837800000000	0.00000000000000	0.00000000000000	0.00000000000000	0.00000000000000	
13.18828900000000	7.27303300000000	702.47663799999998	45.23225800000000	0.21502000000000	0.00000000000000	0.15029900000000	0.00000000000000	0.00000000000000	0.00000000000000	0.00000000000000	0.00000000000000	0.00000000000000	0.00000000000000	18.45725200000000	0.00000000000000	0.00000000000000	0.00000000000000	0.00000000000000	
13.18995700000000	6.74496400000000	703.96086100000002	45.32589400000000	0.21394500000000	0.00000000000000	0.15022000000000	0.00000000000000	0.00000000000000	0.00000000000000	0.00000000000000	0.00000000000000	0.00000000000000	0.00000000000000	18.62246500000000	0.00000000000000	0.00000000000000	0.00000000000000	0.00000000000000	
13.19161900000000	6.20252700000000	705.49321699999996	45.42572400000000	0.21285200000000	0.00000000000000	0.15014400000000	0.00000000000000	0.00000000000000	0.00000000000000	0.00000000000000	0.00000000000000	0.00000000000000	0.00000000000000	18.79381500000000	0.00000000000000	0.00000000000000	0.00000000000000	0.00000000000000	
13.19328700000000	5.64608400000000	707.07284800000002	45.53153600000000	0.21174200000000	0.00000000000000	0.15006900000000	0.00000000000000	0.00000000000000	0.00000000000000	0.00000000000000	0.00000000000000	0.00000000000000	0.00000000000000	18.97109300000000	0.00000000000000	0.00000000000000	0.00000000000000	0.00000000000000	
13.19495000000000	5.07604200000000	708.69888800000001	45.64312300000000	0.21061600000000	0.00000000000000	0.14999600000000	0.00000000000000	0.00000000000000	0.00000000000000	0.00000000000000	0.00000000000000	0.00000000000000	0.00000000000000	19.15408200000000	0.00000000000000	0.00000000000000	0.00000000000000	0.00000000000000	
13.19662500000000	4.49285600000000	710.37045599999999	45.76028400000000	0.20947600000000	0.00000000000000	0.14992600000000	0.00000000000000	0.00000000000000	0.00000000000000	0.00000000000000	0.00000000000000	0.00000000000000	0.00000000000000	19.34255500000000	0.00000000000000	0.00000000000000	0.00000000000000	0.00000000000000	
13.19828500000000	3.89702100000000	712.08665599999995	45.88282600000000	0.20832400000000	0.00000000000000	0.14985600000000	0.00000000000000	0.00000000000000	0.00000000000000	0.00000000000000	0.00000000000000	0.00000000000000	0.00000000000000	19.53627900000000	0.00000000000000	0.00000000000000	0.00000000000000	0.00000000000000	
13.19995700000000	3.28907400000000	713.84656800000005	46.01056000000000	0.20716200000000	0.00000000000000	0.14978900000000	0.00000000000000	0.00000000000000	0.00000000000000	0.00000000000000	0.00000000000000	0.00000000000000	0.00000000000000	19.73501000000000	0.00000000000000	0.00000000000000	0.00000000000000	0.00000000000000	
13.20162300000000	2.66959100000000	715.64925100000005	46.14330600000000	0.20599000000000	0.00000000000000	0.14972300000000	0.00000000000000	0.00000000000000	0.00000000000000	0.00000000000000	0.00000000000000	0.00000000000000	0.00000000000000	19.93850100000000	0.00000000000000	0.00000000000000	0.00000000000000	0.00000000000000	
13.20328900000000	2.03918200000000	717.49373400000002	46.28089100000000	0.20481200000000	0.00000000000000	0.14965800000000	0.00000000000000	0.00000000000000	0.00000000000000	0.00000000000000	0.00000000000000	0.00000000000000	0.00000000000000	20.14649400000000	0.00000000000000	0.00000000000000	0.00000000000000	0.00000000000000	
13.20495500000000	1.39849100000000	719.37901199999999	46.42314800000000	0.20362900000000	0.00000000000000	0.14959500000000	0.00000000000000	0.00000000000000	0.00000000000000	0.00000000000000	0.00000000000000	0.00000000000000	0.00000000000000	20.35872600000000	0.00000000000000	0.00000000000000	0.00000000000000	0.00000000000000	
13.20661700000000	0.74819400000000	721.30404699999997	46.56991800000000	0.20244300000000	0.00000000000000	0.14953300000000	0.00000000000000	0.00000000000000	0.00000000000000	0.00000000000000	0.00000000000000	0.00000000000000	0.00000000000000	20.57492700000000	0.00000000000000	0.00000000000000	0.00000000000000	0.00000000000000	
13.20828300000000	0.08899200000000	723.26775699999996	46.72105000000000	0.20125600000000	0.00000000000000	0.14947200000000	0.00000000000000	0.00000000000000	0.00000000000000	0.00000000000000	0.00000000000000	0.00000000000000	0.00000000000000	20.79482100000000	0.00000000000000	0.00000000000000	0.00000000000000	0.00000000000000	
13.20995300000000	-0.57838800000000	725.26901399999997	46.87639800000000	0.20007000000000	0.00000000000000	0.14941200000000	0.00000000000000	0.00000000000000	0.00000000000000	0.00000000000000	0.00000000000000	0.00000000000000	0.00000000000000	21.01812600000000	0.00000000000000	0.00000000000000	0.00000000000000	0.00000000000000	
13.21161800000000	-1.25319500000000	727.30664200000001	47.03582500000000	0.19888600000000	0.00000000000000	0.14935200000000	0.00000000000000	0.00000000000000	0.00000000000000	0.00000000000000	0.00000000000000	0.00000000000000	0.00000000000000	21.24455200000000	0.00000000000000	0.00000000000000	0.00000000000000	0.00000000000000	
13.21328600000000	-1.93466300000000	729.37941000000001	47.19920200000000	0.19770600000000	0.00000000000000	0.14929400000000	0.00000000000000	0.00000000000000	0.00000000000000	0.00000000000000	0.00000000000000	0.00000000000000	0.00000000000000	21.47380800000000	0.00000000000000	0.00000000000000	0.00000000000000	0.00000000000000	
13.21495000000000	-2.62200600000000	731.48602700000004	47.36640400000000	0.19653300000000	0.00000000000000	0.14923700000000	0.00000000000000	0.00000000000000	0.00000000000000	0.00000000000000	0.00000000000000	0.00000000000000	0.00000000000000	21.70559500000000	0.00000000000000	0.00000000000000	0.00000000000000	0.00000000000000	
13.21662300000000	-3.31442900000000	733.62514099999999	47.53731400000000	0.19536700000000	0.00000000000000	0.14918000000000	0.00000000000000	0.00000000000000	0.00000000000000	0.00000000000000	0.00000000000000	0.00000000000000	0.00000000000000	21.93960900000000	0.00000000000000	0.00000000000000	0.00000000000000	0.00000000000000	
13.21828700000000	-4.01112300000000	735.79533100000003	47.71182200000000	0.19421000000000	0.00000000000000	0.14912300000000	0.00000000000000	0.00000000000000	0.00000000000000	0.00000000000000	0.00000000000000	0.00000000000000	0.00000000000000	22.17554500000000	0.00000000000000	0.00000000000000	0.00000000000000	0.00000000000000	
13.21995100000000	-4.71127700000000	737.99510699999996	47.88982400000000	0.19306400000000	0.00000000000000	0.14906700000000	0.00000000000000	0.00000000000000	0.00000000000000	0.00000000000000	0.00000000000000	0.00000000000000	0.00000000000000	22.41309100000000	0.00000000000000	0.00000000000000	0.00000000000000	0.00000000000000	
13.22162000000000	-5.41407200000000	740.22290099999998	48.07121900000000	0.19193000000000	0.00000000000000	0.14901200000000	0.00000000000000	0.00000000000000	0.00000000000000	0.00000000000000	0.00000000000000	0.00000000000000	0.00000000000000	22.65193300000000	0.00000000000000	0.00000000000000	0.00000000000000	0.00000000000000	
